# xmcd CD database file
#
# Track frame offsets:
#	150
#	28088
#	49962
#	73023
#	95565
#	122055
#	149175
#	176646
#	196401
#	218739
#	250113
#	265998
#	288624
#	307355
#
# Disc length: 4438 seconds
#
# Revision: 0
# Processed by: cddbd v1.5.2PL0 Copyright (c) Steve Scherf et al.
# Submitted via: CDex 1.51
#
DISCID=eb11540e
DTITLE=supperclub - beauty cd two
DYEAR=2008
DGENRE=New Age
TTITLE0=dj disse - break on through
TTITLE1=trans-global underground - emotional yoyo
TTITLE2=los chicharrons - ma do nar (remix)
TTITLE3=the beat nation feat. cheb hamid - mektoub
TTITLE4=munty - delhi to detroit
TTITLE5=anil chawia and dale anderson - table 5
TTITLE6=aurtas - strange world pt.1
TTITLE7=roland klinkenberg - mexico can wait
TTITLE8=j hazen - 700ft (beta remix)
TTITLE9=gui boratto - beautiful life
TTITLE10=paul leonard-morgan - seen from the outside
TTITLE11=redlounge orchestra - aérer
TTITLE12=red seal - cool down
TTITLE13=kenneth bager feat. julee cruise - fragment seven...les fleurs
EXTD=YEAR: 2008
EXTT0=
EXTT1=
EXTT2=
EXTT3=
EXTT4=
EXTT5=
EXTT6=
EXTT7=
EXTT8=
EXTT9=
EXTT10=
EXTT11=
EXTT12=
EXTT13=
PLAYORDER=
